<svg xmlns="http://www.w3.org/2000/svg" width="20.027" height="19.998" viewBox="0 0 20.027 19.998">
  <g id="组_405" data-name="组 405" transform="translate(-989 -4269)">
    <path id="Shape_9_copy_2" data-name="Shape 9 copy 2" d="M2.922,17.072A10,10,0,0,1,15.3,1.528a.7.7,0,1,1-.743,1.188,8.6,8.6,0,1,0,1.519,13.358A8.509,8.509,0,0,0,17.282,5.436a.7.7,0,0,1,1.192-.74,9.912,9.912,0,0,1-1.4,12.376,10.018,10.018,0,0,1-14.153,0Zm5.713-3.2a.692.692,0,0,1-.5-.207L4.873,10.411a.707.707,0,1,1,1-1l2.71,2.7L16.264,2.94a.71.71,0,0,1,1.087.913l-8.164,9.76a.788.788,0,0,1-.517.258Z" transform="translate(989.003 4269)" fill="#b9894f"/>
  </g>
</svg>
