<svg width="25" height="23" viewBox="0 0 25 23" fill="none" xmlns="http://www.w3.org/2000/svg">
<path fill-rule="evenodd" clip-rule="evenodd" d="M22.6833 5.67051C23.0765 6.13005 23.3738 6.47758 23.5043 6.62717C24.2258 7.49867 24.1118 8.83217 23.5043 9.56867C22.3066 10.9638 20.0845 13.5187 17.4684 16.5265C16.1496 18.0428 14.7306 19.6742 13.2923 21.3302C12.6638 22.0532 12.2828 22.0667 12.0143 22.0667C11.7398 22.0667 11.3513 22.0412 10.7378 21.3302C9.44303 19.8405 8.15011 18.3541 6.93169 16.9534C4.0708 13.6646 1.62063 10.8479 0.521317 9.56867C-0.213683 8.46017 -0.132683 7.38467 0.521317 6.62867C1.05862 5.98942 2.1834 4.69053 3.2935 3.40861C4.1761 2.3894 5.04942 1.3809 5.61082 0.723167C6.15532 0.0856665 6.57682 0.0106667 6.90682 0.0106667C6.90682 0.0106667 16.5248 -0.0133333 17.1203 0.0106667C17.7188 0.0331667 18.0068 0.324167 18.3968 0.745667C19.3504 1.77508 21.4718 4.25454 22.6833 5.67051ZM15.2952 7.6667H14.4473C13.9793 7.6667 13.6001 7.25603 13.6001 6.75003V5.83336H11.2001C10.7585 5.83336 10.4001 6.24403 10.4001 6.75003V7.6667C10.4001 8.1727 10.7585 8.58337 11.2001 8.58337H13.3185C13.3177 8.5852 13.3171 8.58749 13.3165 8.58978C13.3159 8.59207 13.3153 8.59436 13.3145 8.5962C14.8065 8.66678 16 10.0647 16 11.7917C16 13.4059 14.9552 14.7764 13.6001 15C12.9767 15.0122 12.3497 15.0081 11.7266 15.0041C11.4165 15.002 11.1073 15 10.8001 15C9.68567 15 8.73048 14.2474 8.28008 13.1667H8.31528C8.12408 12.8816 7.99768 12.4379 8.00008 11.7413C8.15208 11.4956 8.41128 11.3334 8.70488 11.3334H9.55287C10.0209 11.3334 10.4001 11.7431 10.4001 12.25V13.1667H12.8001C13.2417 13.1667 13.6001 12.7569 13.6001 12.25V11.3334C13.6001 10.8264 13.2417 10.4167 12.8001 10.4167H10.6985L10.7033 10.4057C9.20247 10.3461 8.00008 8.9427 8.00008 7.20836C8.00008 5.5932 9.04487 4.22461 10.4001 4.00003C11.0322 3.98796 11.6681 3.99207 12.2912 3.99609C12.5979 3.99807 12.9016 4.00003 13.2001 4.00003C14.3153 4.00003 15.2696 4.75261 15.72 5.83336H15.7016C15.8816 6.12486 16 6.57037 16 7.25878C15.848 7.50445 15.5896 7.6667 15.2952 7.6667Z" fill="#FFA800"/>
</svg>
