<svg xmlns="http://www.w3.org/2000/svg" xmlns:xlink="http://www.w3.org/1999/xlink" width="24.004" height="22.067" viewBox="0 0 24.004 22.067">
  <defs>
    <linearGradient id="linear-gradient" x2="0.699" y2="1" gradientUnits="objectBoundingBox">
      <stop offset="0" stop-color="#ffb72c"/>
      <stop offset="1" stop-color="#ea8800"/>
    </linearGradient>
  </defs>
  <path id="vipbold" d="M22.684,7.671c.393.46.691.807.821.957a2.417,2.417,0,0,1,0,2.942c-1.2,1.4-3.42,3.95-6.036,6.958-1.319,1.516-2.738,3.148-4.176,4.8-.628.723-1.009.736-1.278.736s-.663-.025-1.276-.736L6.932,18.953c-2.861-3.289-5.311-6.105-6.41-7.385a2.322,2.322,0,0,1,0-2.94c.537-.639,1.662-1.938,2.772-3.22C4.176,4.389,5.05,3.381,5.611,2.723a1.6,1.6,0,0,1,1.3-.713s9.618-.024,10.214,0a1.692,1.692,0,0,1,1.277.735C19.351,3.775,21.472,6.255,22.684,7.671ZM8.957,15.356c-1.278-1.59-2.556-3.179-3.07-3.878l-.078-.1a.776.776,0,0,0-.754-.342H5V10H7.244c.066,0,.081,0,.126.073l4.595,5.908,4.6-5.893c.059-.09.08-.09.141-.09h2.233v1.038H18.89a.776.776,0,0,0-.753.344l-.018.024c-.013.017-.027.036-.045.056-.516.7-1.785,2.28-3.056,3.863-1.243,1.547-2.49,3.1-3.041,3.841C11.427,18.428,10.192,16.892,8.957,15.356Z" transform="translate(0 -2)" fill-rule="evenodd" fill="url(#linear-gradient)"/>
</svg>
