<svg xmlns="http://www.w3.org/2000/svg" xmlns:xlink="http://www.w3.org/1999/xlink" width="23.906" height="22" viewBox="0 0 23.906 22">
  <defs>
    <linearGradient id="linear-gradient" x1="1" y1="1" x2="0.31" y2="0.309" gradientUnits="objectBoundingBox">
      <stop offset="0" stop-color="#ffa800"/>
      <stop offset="1" stop-color="#f2b94e"/>
    </linearGradient>
  </defs>
  <path id="vvip" d="M2.812,7.616A1.4,1.4,0,0,0,1.406,6.233,1.384,1.384,0,1,0,1.407,9a1.42,1.42,0,0,0,.33-.042L4,23H20L22.17,8.958A1.42,1.42,0,0,0,22.5,9a1.384,1.384,0,1,0-1.407-1.384,1.358,1.358,0,0,0,.123.561L17,9,12.743,3.554a1.374,1.374,0,0,0,.663-1.17,1.407,1.407,0,0,0-2.813,0,1.374,1.374,0,0,0,.7,1.19L7,9,2.689,8.177A1.352,1.352,0,0,0,2.812,7.616Zm6.145,8.74c-1.279-1.59-2.556-3.179-3.071-3.878l-.078-.1a.776.776,0,0,0-.754-.342H5V11H7.244c.066,0,.081,0,.126.073l4.595,5.908,4.6-5.893c.059-.09.08-.09.141-.09h2.233v1.038H18.89a.776.776,0,0,0-.753.344l-.018.024c-.013.017-.027.036-.045.056-.516.7-1.785,2.28-3.056,3.863-1.243,1.547-2.49,3.1-3.041,3.841C11.427,19.428,10.192,17.892,8.957,16.356Z" transform="translate(0 -1)" fill-rule="evenodd" fill="url(#linear-gradient)"/>
</svg>
