<?xml version="1.0" encoding="utf-8"?>
<!-- Generator: Adobe Illustrator 16.0.0, SVG Export Plug-In . SVG Version: 6.00 Build 0)  -->
<!DOCTYPE svg PUBLIC "-//W3C//DTD SVG 1.1//EN" "http://www.w3.org/Graphics/SVG/1.1/DTD/svg11.dtd">
<svg version="1.1" id="图层_1" xmlns="http://www.w3.org/2000/svg" xmlns:xlink="http://www.w3.org/1999/xlink" x="0px" y="0px"
	 width="200px" height="200px" viewBox="0 0 200 200" enable-background="new 0 0 200 200" xml:space="preserve">
<path fill="#FFFFFF" d="M51.916,106.759c-3.667,0-5.499-1.571-5.499-4.713V89.082c0-3.535,1.833-5.237,5.499-5.237H87.4
	c-0.917,8.249-3.012,15.844-6.417,22.915H51.916z M103.375,83.844h45.042c1.964,0,3.535,0.393,4.582,1.179
	c0.917,0.654,1.441,2.095,1.441,4.059v13.878c0,2.489-1.964,3.799-6.023,3.799H98.268C100.624,99.557,102.326,91.962,103.375,83.844
	z M54.797,138.183c-6.285,4.321-15.451,8.381-27.497,11.915v13.488c4.976-0.524,8.904-1.179,11.784-1.834
	c9.297-2.226,18.07-6.547,26.712-12.701c9.166-6.678,17.545-15.975,25.271-27.889h11.654v26.449c0,5.367,1.57,9.427,4.843,11.915
	c2.881,2.355,6.68,3.535,11.13,3.535H171.2v-14.796h-47.53c-2.096,0-3.535-0.393-4.452-1.179c-0.917-0.785-1.31-2.356-1.31-4.714
	l0.131-21.211h35.484c4.714,0,8.511-1.44,11.522-4.321c2.488-2.489,3.798-6.154,3.798-11.13v-20.95c0-5.107-1.441-8.904-4.19-11.523
	c-1.702-1.571-4.321-2.88-7.988-3.666l4.061-9.559c1.177-2.75,1.832-5.106,1.832-6.939c0-3.797-1.439-7.07-4.451-9.951
	c-3.011-3.011-7.201-4.583-12.57-4.583H61.344l2.226-7.726H48.905c-2.619,7.333-5.368,12.702-8.118,16.236
	c-3.404,4.19-7.333,6.809-11.784,7.595v14.927c6.023-1.703,10.868-3.928,14.926-6.678c3.536-2.488,6.94-5.761,10.213-9.952h85.502
	c3.013,0,4.977,0.262,5.762,0.655c1.18,0.655,1.833,1.44,1.833,2.619s-0.523,2.881-1.571,5.238l-3.404,7.594H52.963
	c-7.856,0-13.225,1.31-16.104,4.059c-3.012,2.881-4.583,7.071-4.583,12.439v19.378c0,7.987,3.273,13.226,9.951,15.451
	c1.571,0.523,4.714,0.786,9.427,0.786h21.081C66.319,128.756,60.559,134.386,54.797,138.183L54.797,138.183z"/>
</svg>
